<svg width="151" height="162" viewBox="0 0 151 162" fill="none" xmlns="http://www.w3.org/2000/svg">
<path d="M77.7395 124.085C71.9972 124.085 66.1422 122.466 61.0239 119.267C52.3869 113.867 46.1144 104.113 44.2378 93.1822C43.4309 88.4579 43.4638 83.9776 44.3457 79.8679C44.5006 79.1501 44.6507 78.4182 44.8055 77.677C46.091 71.4702 47.55 64.4377 51.7301 59.6899C56.6374 54.1118 64.4299 46.8025 75.2202 47.6423C86.8456 48.5524 97.9738 55.1627 102.914 64.0811C104.622 67.1587 105.808 70.7148 106.766 75.6033C108.586 84.8924 108.473 93.2995 106.437 100.599C103.993 109.344 98.5977 116.616 91.6262 120.547C87.4368 122.912 82.628 124.085 77.7395 124.085Z" stroke="#66ACFF" stroke-opacity="0.5" stroke-miterlimit="10"/>
<path d="M66.8134 132.181C55.9011 128.775 45.791 121.376 38.7257 111.379C34.8975 105.955 32.2702 100.335 30.9191 94.6677C29.4037 88.3108 32.3218 83.0235 35.1414 77.9099C36.7271 75.0387 38.3644 72.069 39.2699 68.8694C39.9971 66.3032 40.5553 63.5493 41.0949 60.8799C43.0512 51.2389 45.0685 41.2743 55.371 37.3147C71.397 31.1548 83.5385 31.9758 94.7417 39.9748C98.7153 42.8084 102.323 46.5475 106.433 52.0834C114.249 62.6157 119.128 73.1949 120.934 83.5396C123.097 95.9344 120.685 108.25 114.314 117.323C105.978 129.202 90.6554 135.741 75.2815 133.982C72.4338 133.658 69.5955 133.049 66.8134 132.181Z" stroke="#66ACFF" stroke-opacity="0.5" stroke-miterlimit="10"/>
<path d="M81.9008 161.396C76.698 161.396 71.4764 160.805 66.3674 159.58C45.0072 154.453 25.4908 138.811 14.1609 117.737C9.2677 108.636 6.27456 99.4546 5.25651 90.447C4.20562 81.0969 11.4727 75.1716 18.4958 69.4434C23.511 65.3524 28.6997 61.1254 31.0032 55.6552C33.7008 49.2466 33.4756 41.0647 33.2645 33.1596C32.9126 20.2018 32.5467 6.80774 46.227 3.38297C70.6132 -2.71592 97.894 3.15309 114.098 18.0016C119.695 23.1293 124.56 29.5848 129.871 38.9254C139.972 56.6967 145.517 73.9894 146.352 90.325C147.351 109.879 141.299 128.434 129.758 141.237C118.185 154.087 100.179 161.396 81.9008 161.396Z" stroke="#66ACFF" stroke-opacity="0.5" stroke-miterlimit="10"/>
<path d="M61.6615 154.631C51.3075 154.631 41.3803 152.351 32.8372 147.851C14.0995 137.981 1.30592 116.165 1.00566 93.5714C0.728867 72.6099 10.6138 50.8744 27.4467 35.4396C34.7185 28.773 42.5016 23.8423 50.5897 20.7928C60.1696 17.1757 69.1631 19.6997 78.6821 22.3692C82.8059 23.528 87.0657 24.7196 91.3772 25.3717C96.6363 26.1599 102.238 26.0097 107.661 25.8596C120.474 25.5031 133.736 25.1465 140.741 38.1512C152.117 59.2768 153.103 85.8821 143.185 104.348C140.717 108.941 134.032 112.633 127.567 116.203C123.288 118.567 119.249 120.796 116.922 123.034C113.178 126.632 110.256 130.104 107.427 133.463C101.032 141.054 95.5057 147.612 83.7958 151.234C76.4396 153.5 68.9426 154.631 61.6615 154.631Z" stroke="#66ACFF" stroke-opacity="0.5" stroke-miterlimit="10"/>
</svg>
