<svg width="440" height="474" viewBox="0 0 440 474" fill="none" xmlns="http://www.w3.org/2000/svg">
<path d="M226.822 363.204C209.924 363.204 192.695 358.441 177.633 349.025C152.216 333.135 133.758 304.433 128.236 272.266C125.861 258.364 125.958 245.179 128.554 233.086C129.009 230.973 129.451 228.82 129.907 226.638C133.689 208.374 137.983 187.679 150.284 173.708C164.724 157.293 187.656 135.784 219.408 138.255C253.619 140.933 286.366 160.385 300.903 186.63C305.928 195.686 309.421 206.151 312.238 220.536C317.594 247.871 317.263 272.611 311.271 294.093C304.078 319.826 288.202 341.225 267.687 352.794C255.358 359.752 241.208 363.204 226.822 363.204Z" stroke="#DDEDFF" stroke-miterlimit="10"/>
<path d="M194.67 387.028C162.558 377.005 132.807 355.234 112.015 325.814C100.75 309.855 93.0189 293.315 89.0428 276.638C84.5836 257.932 93.1707 242.373 101.468 227.324C106.134 218.875 110.952 210.136 113.617 200.721C115.757 193.169 117.4 185.065 118.987 177.21C124.744 148.839 130.681 119.516 160.998 107.864C208.158 89.7375 243.887 92.1535 276.855 115.692C288.548 124.031 299.165 135.034 311.258 151.324C334.259 182.318 348.616 213.45 353.932 243.891C360.296 280.366 353.2 316.605 334.452 343.306C309.919 378.261 264.83 397.507 219.589 392.329C211.209 391.377 202.857 389.582 194.67 387.028Z" stroke="#DDEDFF" stroke-miterlimit="10"/>
<path d="M239.069 473C223.758 473 208.393 471.26 193.358 467.657C130.501 452.568 73.0697 406.54 39.7291 344.525C25.3298 317.742 16.5218 290.724 13.526 264.217C10.4336 236.703 31.8185 219.266 52.4855 202.41C67.2438 190.371 82.5128 177.932 89.2914 161.835C97.2296 142.976 96.5669 118.899 95.9456 95.6368C94.9102 57.5056 93.8334 18.0905 134.091 8.01242C205.852 -9.9349 286.132 7.33595 333.817 51.0308C350.287 66.1203 364.603 85.1169 380.231 112.604C409.955 164.9 426.273 215.787 428.731 263.858C431.671 321.4 413.862 376.002 379.9 413.677C345.842 451.491 292.855 473 239.069 473Z" stroke="#DDEDFF" stroke-miterlimit="10"/>
<path d="M179.51 453.092C149.041 453.092 119.828 446.382 94.6879 433.143C39.5482 404.096 1.90023 339.899 1.01666 273.411C0.202132 211.728 29.2906 147.766 78.8252 102.346C100.224 82.728 123.128 68.2183 146.928 59.2447C175.12 48.6005 201.585 56.028 229.597 63.8834C241.732 67.2934 254.267 70.8 266.955 72.719C282.431 75.0383 298.915 74.5966 314.874 74.1548C352.577 73.1055 391.606 72.0563 412.218 110.326C445.696 172.492 448.595 250.784 419.41 305.123C412.149 318.639 392.476 329.504 373.451 340.01C360.861 346.968 348.974 353.526 342.126 360.111C331.109 370.7 322.509 380.916 314.184 390.801C295.367 413.138 279.104 432.439 244.645 443.097C222.998 449.765 200.936 453.092 179.51 453.092Z" stroke="#DDEDFF" stroke-miterlimit="10"/>
</svg>
