<svg xmlns="http://www.w3.org/2000/svg" width="1920" height="940" viewBox="0 0 1920 940" fill="none">
  <path d="M289 80.5C173.272 57.9169 -2 0 -2 0L-7 823.5C-7 823.5 139.5 784 280.5 760.5C421.5 737 701 710 701 710C701 710 906.5 701.5 1029 710C1151.5 718.5 1145.62 732.445 1220 748.5C1499.38 808.805 1926.5 939.5 1926.5 939.5V177C1926.5 177 1748 185 1672 177C1596 169 1454.5 134.5 1423 126C1391.5 117.5 1238.5 99 1186.5 94.5C1134.5 90 948 94.5 948 94.5C872 94.5 732.41 120.175 594 115.5C474.177 111.453 406.672 103.463 289 80.5Z" fill="red"/>
</svg>