<svg width="206" height="222" viewBox="0 0 206 222" fill="none" xmlns="http://www.w3.org/2000/svg">
<path d="M106.066 169.644C98.2042 169.644 90.188 167.429 83.1803 163.048C71.3552 155.655 62.7674 142.301 60.1981 127.335C59.0933 120.867 59.1383 114.733 60.3458 109.106C60.5578 108.123 60.7633 107.121 60.9753 106.106C62.7352 97.6083 64.7329 87.9799 70.4559 81.4796C77.1746 73.8424 87.8435 63.8351 102.617 64.9848C118.534 66.2309 133.769 75.2812 140.533 87.4918C142.871 91.7054 144.496 96.5742 145.806 103.267C148.299 115.985 148.145 127.495 145.357 137.49C142.01 149.463 134.624 159.419 125.079 164.801C119.343 168.039 112.759 169.644 106.066 169.644Z" stroke="#66ACFF" stroke-opacity="0.5" stroke-miterlimit="10"/>
<path d="M91.1069 180.729C76.1666 176.066 62.3246 165.936 52.6513 152.248C47.4099 144.823 43.8129 137.128 41.963 129.369C39.8883 120.665 43.8836 113.427 47.7439 106.425C49.915 102.494 52.1567 98.4283 53.3963 94.0477C54.3919 90.5342 55.1563 86.7638 55.895 83.109C58.5734 69.9093 61.3354 56.2664 75.4408 50.8453C97.3824 42.4116 114.006 43.5357 129.344 54.4872C134.785 58.3668 139.724 63.4861 145.351 71.0655C156.052 85.4856 162.732 99.9699 165.205 114.133C168.166 131.103 164.865 147.964 156.142 160.387C144.728 176.65 123.75 185.604 102.701 183.195C98.8019 182.752 94.9159 181.917 91.1069 180.729Z" stroke="#66ACFF" stroke-opacity="0.5" stroke-miterlimit="10"/>
<path d="M111.764 220.728C104.64 220.728 97.4911 219.919 90.4963 218.242C61.2514 211.222 34.5309 189.807 19.0189 160.954C12.3195 148.493 8.22151 135.923 6.82767 123.59C5.38888 110.789 15.3384 102.676 24.9539 94.8334C31.8204 89.2324 38.9244 83.4451 42.0782 75.9556C45.7715 67.1815 45.4632 55.9795 45.1742 45.1564C44.6924 27.4155 44.1914 9.07726 62.9215 4.38833C96.3093 -3.96183 133.66 4.07359 155.846 24.403C163.509 31.4236 170.17 40.2619 177.441 53.0505C191.27 77.3816 198.862 101.058 200.005 123.423C201.374 150.195 193.088 175.599 177.287 193.128C161.441 210.721 136.788 220.728 111.764 220.728Z" stroke="#66ACFF" stroke-opacity="0.5" stroke-miterlimit="10"/>
<path d="M84.0533 211.466C69.8773 211.466 56.2858 208.344 44.5892 202.184C18.9349 188.67 1.41884 158.802 1.00775 127.868C0.628784 99.1688 14.1625 69.4102 37.2089 48.2778C47.1649 39.1505 57.821 32.3997 68.8946 28.2246C82.0108 23.2723 94.324 26.728 107.357 30.3828C113.003 31.9693 118.835 33.6008 124.738 34.4936C131.938 35.5727 139.608 35.3672 147.033 35.1617C164.575 34.6735 182.733 34.1853 192.323 51.9904C207.899 80.9141 209.248 117.34 195.669 142.622C192.291 148.91 183.138 153.965 174.286 158.853C168.429 162.09 162.898 165.142 159.712 168.205C154.587 173.132 150.585 177.885 146.712 182.484C137.957 192.877 130.39 201.857 114.358 206.815C104.286 209.918 94.0221 211.466 84.0533 211.466Z" stroke="#66ACFF" stroke-opacity="0.5" stroke-miterlimit="10"/>
</svg>
