<svg width="1920" height="881" viewBox="0 0 1920 881" fill="none" xmlns="http://www.w3.org/2000/svg">
<path d="M242.19 812.142C117.681 828.971 -72.695 880.925 -72.695 880.925L-55.5001 0.49988C-55.5001 0.49988 94.3756 16.1546 242.19 52.5877C390.005 89.0208 687 83.5 687 83.5C687 83.5 935.878 119.121 1066.5 118.5C1197.12 117.879 1270.86 96.0354 1351 83.5C1652.01 36.4146 1986.96 52.5877 1986.96 52.5877L1986.96 861.474C1986.96 861.474 1798.17 801.108 1716.93 804.536C1635.68 807.964 1482.92 836.228 1448.85 843.435C1414.78 850.641 1251.04 860.215 1195.52 861.474C1140 862.733 942.467 844.213 942.467 844.213C861.83 838.712 715.677 799.954 568.466 795.153C441.023 790.998 368.791 795.03 242.19 812.142Z" fill="white"/>
</svg>
