<svg width="1920" height="882" viewBox="0 0 1920 882" fill="none" xmlns="http://www.w3.org/2000/svg">
<path d="M180.549 812.474C56.0403 829.303 -134.336 881.257 -134.336 881.257L-117.141 0.832156C-117.141 0.832156 32.7345 16.4869 180.549 52.92C328.364 89.3531 625.359 83.8323 625.359 83.8323C625.359 83.8323 874.237 119.453 1004.86 118.832C1135.48 118.212 1209.22 96.3677 1289.36 83.8323C1590.37 36.7469 1925.31 52.92 1925.31 52.92L1925.31 861.807C1925.31 861.807 1736.53 801.44 1655.29 804.868C1574.04 808.296 1421.28 836.56 1387.21 843.767C1353.14 850.974 1189.39 860.548 1133.88 861.807C1078.36 863.065 880.826 844.545 880.826 844.545C800.189 839.044 654.036 800.286 506.824 795.486C379.382 791.33 307.15 795.363 180.549 812.474Z" fill="red" fill-opacity="0.5"/>
</svg>
