<svg width="426" height="459" viewBox="0 0 426 459" fill="none" xmlns="http://www.w3.org/2000/svg">
<path d="M231.467 457.929C216.646 457.929 201.77 456.245 187.216 452.757C126.366 438.149 70.7684 393.591 38.4924 333.556C24.5529 307.628 16.0261 281.473 13.126 255.813C10.1322 229.177 30.8344 212.297 50.8415 195.979C65.1285 184.325 79.91 172.283 86.4721 156.699C94.1569 138.443 93.5154 115.135 92.914 92.6151C91.9116 55.7014 90.8691 17.5448 129.841 7.78852C199.311 -9.58576 277.028 7.13365 323.19 49.4333C339.134 64.0411 352.994 82.4311 368.123 109.04C396.897 159.666 412.694 208.929 415.073 255.465C417.92 311.17 400.679 364.028 367.802 400.501C334.831 437.107 283.537 457.929 231.467 457.929Z" stroke="#E8D3BF" stroke-miterlimit="10"/>
<path d="M173.81 438.657C144.314 438.657 116.034 432.161 91.6965 419.345C38.3174 391.225 1.87148 329.079 1.01613 264.714C0.227607 205 28.3873 143.08 76.3403 99.11C97.0558 80.1186 119.228 66.0722 142.269 57.385C169.56 47.0807 195.18 54.271 222.298 61.8756C234.045 65.1767 246.181 68.5714 258.463 70.4291C273.445 72.6744 289.402 72.2467 304.852 71.8191C341.352 70.8033 379.134 69.7876 399.088 106.835C431.497 167.017 434.304 242.809 406.051 295.413C399.021 308.497 379.976 319.015 361.559 329.185C349.37 335.921 337.863 342.27 331.234 348.645C320.569 358.895 312.243 368.785 304.184 378.355C285.968 399.979 270.224 418.663 236.865 428.981C215.909 435.436 194.552 438.657 173.81 438.657Z" stroke="#E8D3BF" stroke-miterlimit="10"/>
</svg>
