<svg width="27" height="27" viewBox="0 0 27 27" fill="none" xmlns="http://www.w3.org/2000/svg">
<g clip-path="url(#clip0_107_314)">
<path d="M0 22.4427C0.0452568 22.1844 0.0786818 21.9235 0.137545 21.6685C0.416777 20.4608 1.10036 19.536 2.09897 18.8308C2.79735 18.3375 3.57322 18.0003 4.35294 17.6675C5.10811 17.3451 5.86505 17.0251 6.60839 16.6765C6.99381 16.4958 7.3464 16.2405 7.54577 15.8439C7.62179 15.693 7.64279 15.5037 7.65018 15.3301C7.67059 14.8393 7.67237 14.3475 7.67739 13.8561C7.67799 13.8113 7.6632 13.7505 7.63273 13.724C7.2902 13.4261 7.08344 13.0327 6.92578 12.6233C6.76486 12.2052 6.65897 11.765 6.53976 11.3318C6.51373 11.2375 6.48977 11.1689 6.38891 11.1406C6.13541 11.0696 5.96444 10.8999 5.84878 10.667C5.56482 10.0966 5.39621 9.49688 5.5095 8.85872C5.55121 8.62433 5.70295 8.41081 5.79731 8.18447C5.82482 8.11827 5.85204 8.03566 5.83725 7.97036C5.58523 6.86401 5.40864 5.74901 5.4743 4.60926C5.53258 3.59595 5.7769 2.64139 6.40695 1.82013C6.98494 1.06685 7.75016 0.593897 8.64228 0.318354C9.59445 0.0240228 10.5688 -0.0693161 11.5582 0.0508615C12.0901 0.115572 12.6015 0.256028 13.0455 0.577496C13.1647 0.663976 13.2821 0.759104 13.3783 0.870037C13.4777 0.984549 13.5927 1.03793 13.7356 1.0752C14.9667 1.39757 15.7316 2.19497 16.0612 3.42508C16.2919 4.2869 16.2889 5.16065 16.1904 6.04036C16.1144 6.71759 15.9629 7.37752 15.7742 8.03059C15.76 8.0795 15.7668 8.15465 15.7958 8.19312C16.1135 8.61359 16.1771 9.08506 16.0925 9.59141C16.0218 10.0155 15.9094 10.4237 15.6766 10.7905C15.5808 10.9414 15.4589 11.0655 15.2847 11.112C15.1318 11.1528 15.0856 11.2524 15.0599 11.3962C14.9262 12.1465 14.6594 12.8446 14.2328 13.4774C14.2027 13.5221 14.1746 13.5781 14.1311 13.6026C13.9598 13.6977 13.948 13.851 13.9533 14.0213C13.9696 14.5473 13.9669 15.0746 13.9983 15.5997C14.0148 15.8785 14.1911 16.0917 14.3923 16.276C14.421 16.3023 14.4529 16.3246 14.4902 16.3545C14.3068 16.6625 14.1255 16.967 13.9382 17.2813C13.5617 17.0558 13.2981 16.7439 13.1026 16.3688C12.9994 16.1708 12.913 15.9686 12.91 15.7372C12.8997 14.9278 12.8837 14.1185 12.8728 13.3092C12.8725 13.277 12.8941 13.2254 12.9192 13.2143C13.3301 13.0354 13.4771 12.6436 13.6537 12.2818C13.9412 11.6929 14.0953 11.0652 14.1332 10.3987C14.2571 10.3864 14.3692 10.3626 14.4801 10.3679C14.6316 10.3754 14.7389 10.3065 14.783 10.1786C14.8768 9.90423 14.9501 9.62302 15.0268 9.34301C15.0433 9.28217 15.0415 9.21478 15.0404 9.15066C15.0353 8.89689 14.9362 8.70902 14.6949 8.5954C14.5029 8.50504 14.5094 8.49162 14.5777 8.28467C14.92 7.24333 15.1424 6.17813 15.1693 5.07894C15.1832 4.51055 15.1164 3.95052 14.9173 3.41106C14.6017 2.5564 13.9716 2.12311 13.0961 2.02082C12.9565 2.00442 12.8606 1.96953 12.7938 1.83444C12.6657 1.5756 12.432 1.43365 12.1759 1.33166C11.6825 1.13485 11.1657 1.0761 10.6398 1.09369C9.99348 1.11516 9.35634 1.19329 8.74078 1.41128C7.55967 1.82997 6.90862 2.69686 6.65926 3.90161C6.48327 4.75329 6.51018 5.61154 6.64743 6.46351C6.75599 7.13746 6.90448 7.80485 7.04114 8.50445C7.00002 8.53009 6.92903 8.58109 6.85212 8.62075C6.63767 8.73168 6.55337 8.91806 6.56017 9.14708C6.57023 9.48167 6.62968 9.80761 6.77433 10.113C6.85124 10.2758 6.95476 10.3906 7.15857 10.3712C7.25411 10.3623 7.35291 10.3873 7.44283 10.3963C7.49696 10.7154 7.53571 11.0252 7.60433 11.3282C7.72029 11.839 7.92232 12.3167 8.20687 12.7572C8.32667 12.9427 8.46599 13.1046 8.67482 13.1964C8.71209 13.2128 8.75409 13.2734 8.7538 13.3133C8.7467 14.123 8.74197 14.9326 8.71889 15.7416C8.70529 16.2128 8.43463 16.5686 8.13085 16.8942C7.68006 17.377 7.11538 17.6919 6.51876 17.9472C5.64587 18.3208 4.76055 18.6647 3.89238 19.0488C3.1946 19.3577 2.54947 19.7603 2.02709 20.3331C1.57689 20.8267 1.35149 21.4285 1.21839 22.0941C1.29322 22.0941 1.35623 22.0941 1.41923 22.0941C5.26429 22.0941 9.10964 22.095 12.9547 22.0902C13.1053 22.0902 13.1689 22.1331 13.2094 22.2781C13.2928 22.5775 13.3969 22.8709 13.4996 23.1876H0C0 22.9392 0 22.6905 0 22.4421V22.4427Z" fill="white"/>
<path d="M27 20.469C26.9831 24.0829 24.0743 27.009 20.5073 27C16.9272 26.9911 14.0163 24.0346 14.0394 20.4314C14.0628 16.8052 16.9719 13.9185 20.5889 13.9329C24.1053 13.9469 27.0163 16.9146 27 20.469ZM20.4987 25.9059C23.4691 25.9238 25.8893 23.5131 25.9159 20.514C25.9422 17.5388 23.6149 15.0848 20.6404 15.0231C17.5591 14.959 15.148 17.4105 15.1187 20.4144C15.0892 23.4439 17.4913 25.8877 20.4987 25.9059Z" fill="white"/>
<path d="M21.0651 23.7233H19.9778V21.0123H17.2849V19.917H19.9751V17.2036H21.0551V19.9194H23.7498V21.0045H21.0654V23.7236L21.0651 23.7233Z" fill="white"/>
</g>
<defs>
<clipPath id="clip0_107_314">
<rect width="27" height="27" fill="white"/>
</clipPath>
</defs>
</svg>
